<?xml version="1.0" encoding="UTF-8" standalone="no"?>
<!--
Copyright (c) 2023
@author Oliver Merkel, Merkel(dot)Oliver(at)web(dot)de.
All rights reserved.

This graphics is licensed under a
http://creativecommons.org/licenses/by-nc-sa/4.0/deed.en_US
Creative Commons Attribution-NonCommercial-ShareAlike 4.0 International License.
-->
<svg version="1.1"
  xmlns:dc="http://purl.org/dc/elements/1.1/"
  xmlns:cc="http://creativecommons.org/ns#"
  xmlns:rdf="http://www.w3.org/1999/02/22-rdf-syntax-ns#"
  xmlns="http://www.w3.org/2000/svg"
  width="800px" height="800px"
  viewBox="0 0 1400 1400">
  <title
     id="titleBoard">Board</title>
  <metadata
     id="metadata7">
    <rdf:RDF>
      <cc:Work
         rdf:about="">
        <dc:format>image/svg+xml</dc:format>
        <dc:type
           rdf:resource="http://purl.org/dc/dcmitype/StillImage" />
        <dc:title>Board</dc:title>
        <dc:date>2023-01-10</dc:date>
        <dc:creator>
          <cc:Agent>
            <dc:title>Oliver Merkel, Merkel(dot)Oliver (at)web(dot) de</dc:title>
          </cc:Agent>
        </dc:creator>
        <dc:rights>
          <cc:Agent>
            <dc:title>Oliver Merkel, Merkel(dot)Oliver (at)web(dot) de</dc:title>
          </cc:Agent>
        </dc:rights>
        <dc:publisher>
          <cc:Agent>
            <dc:title>Oliver Merkel, Merkel(dot)Oliver (at)web(dot) de</dc:title>
          </cc:Agent>
        </dc:publisher>
        <dc:language>en-GB</dc:language>
        <cc:license
           rdf:resource="http://creativecommons.org/licenses/by-nc-sa/4.0/" />
      </cc:Work>
      <cc:License
         rdf:about="http://creativecommons.org/licenses/by-nc-sa/4.0/">
        <cc:permits
           rdf:resource="http://creativecommons.org/ns#Reproduction" />
        <cc:permits
           rdf:resource="http://creativecommons.org/ns#Distribution" />
        <cc:requires
           rdf:resource="http://creativecommons.org/ns#Notice" />
        <cc:requires
           rdf:resource="http://creativecommons.org/ns#Attribution" />
        <cc:prohibits
           rdf:resource="http://creativecommons.org/ns#CommercialUse" />
        <cc:permits
           rdf:resource="http://creativecommons.org/ns#DerivativeWorks" />
        <cc:requires
           rdf:resource="http://creativecommons.org/ns#ShareAlike" />
      </cc:License>
    </rdf:RDF>
  </metadata>
  <path style="stroke:#66a;stroke-linecap:round;stroke-width:20;fill:#e88;"
    d="M500,100 900,100 900,500 500,500z" />
  <path style="stroke:#c00;stroke-linecap:round;stroke-width:20;"
    d="M500,100 900,100 M500,300 900,300 M500,500 900,500 M100,700 1300,700 M100,900 1300,900 M500,1100 900,1100 M500,1300 900,1300" />
  <path style="stroke:#000;stroke-linecap:round;stroke-width:5;"
    d="M100,500 100,900 M300,500 300,900 M500,500 500,1300 M700,100 700,1300 M900,500 900,1300 M1100,500 1100,900 M1300,500 1300,900 M100,500 500,500 M900,500 1300,500" />
  <path style="stroke:#000;stroke-linecap:round;stroke-width:5;"
    d="M500,100 1300,900 M100,900 900,100 M100,500 900,1300 M500,1300 1300,500 M500,500 900,900 M900,500 500,900" />

  <circle style="stroke-width:10;stroke:#cc0;fill:#0c0;" cx="500" cy="100" r="40" />
  <circle style="stroke-width:10;stroke:#cc0;fill:#0c0;" cx="700" cy="100" r="40" />
  <circle style="stroke-width:10;stroke:#cc0;fill:#0c0;" cx="900" cy="100" r="40" />
  <circle style="stroke-width:10;stroke:#cc0;fill:#0c0;" cx="500" cy="300" r="40" />
  <circle style="stroke-width:10;stroke:#cc0;fill:#0c0;" cx="700" cy="300" r="40" />
  <circle style="stroke-width:10;stroke:#cc0;fill:#0c0;" cx="900" cy="300" r="40" />

  <circle style="stroke-width:10;stroke:#d00;fill:#e88;" cx="100" cy="500" r="40" />
  <circle style="stroke-width:10;stroke:#d00;fill:#e88;" cx="300" cy="500" r="40" />
  <circle style="stroke-width:10;stroke:#cc0;fill:#0c0;" cx="500" cy="500" r="40" />
  <circle style="stroke-width:10;stroke:#cc0;fill:#0c0;" cx="700" cy="500" r="40" />
  <circle style="stroke-width:10;stroke:#cc0;fill:#0c0;" cx="900" cy="500" r="40" />
  <circle style="stroke-width:10;stroke:#d00;fill:#e88;" cx="1100" cy="500" r="40" />
  <circle style="stroke-width:10;stroke:#d00;fill:#e88;" cx="1300" cy="500" r="40" />

  <circle style="stroke-width:10;stroke:#d00;fill:#e88;" cx="100" cy="700" r="40" />
  <circle style="stroke-width:10;stroke:#d00;fill:#e88;" cx="300" cy="700" r="40" />
  <circle style="stroke-width:10;stroke:#d00;fill:#e88;" cx="500" cy="700" r="40" />
  <circle style="stroke-width:10;stroke:#d00;fill:#e88;" cx="700" cy="700" r="40" />
  <circle style="stroke-width:10;stroke:#d00;fill:#e88;" cx="900" cy="700" r="40" />
  <circle style="stroke-width:10;stroke:#d00;fill:#e88;" cx="1100" cy="700" r="40" />
  <circle style="stroke-width:10;stroke:#d00;fill:#e88;" cx="1300" cy="700" r="40" />

  <circle style="stroke-width:10;stroke:#d00;fill:#e88;" cx="100" cy="900" r="40" />
  <circle style="stroke-width:10;stroke:#d00;fill:#e88;" cx="300" cy="900" r="40" />
  <circle style="stroke-width:10;stroke:#d00;fill:#e88;" cx="500" cy="900" r="40" />
  <circle style="stroke-width:10;stroke:#d00;fill:#e88;" cx="700" cy="900" r="40" />
  <circle style="stroke-width:10;stroke:#d00;fill:#e88;" cx="900" cy="900" r="40" />
  <circle style="stroke-width:10;stroke:#d00;fill:#e88;" cx="1100" cy="900" r="40" />
  <circle style="stroke-width:10;stroke:#d00;fill:#e88;" cx="1300" cy="900" r="40" />

  <circle style="stroke-width:10;stroke:#d00;fill:#e88;" cx="500" cy="1100" r="40" />
  <circle style="stroke-width:10;stroke:#d00;fill:#e88;" cx="700" cy="1100" r="40" />
  <circle style="stroke-width:10;stroke:#d00;fill:#e88;" cx="900" cy="1100" r="40" />
  <circle style="stroke-width:10;stroke:#d00;fill:#e88;" cx="500" cy="1300" r="40" />
  <circle style="stroke-width:10;stroke:#d00;fill:#e88;" cx="700" cy="1300" r="40" />
  <circle style="stroke-width:10;stroke:#d00;fill:#e88;" cx="900" cy="1300" r="40" />

  <!-- Outline -->

  <circle style="stroke-width:4;stroke:#000;fill:none;" cx="500" cy="100" r="45" />
  <circle style="stroke-width:4;stroke:#000;fill:none;" cx="700" cy="100" r="45" />
  <circle style="stroke-width:4;stroke:#000;fill:none;" cx="900" cy="100" r="45" />
  <circle style="stroke-width:4;stroke:#000;fill:none;" cx="500" cy="300" r="45" />
  <circle style="stroke-width:4;stroke:#000;fill:none;" cx="700" cy="300" r="45" />
  <circle style="stroke-width:4;stroke:#000;fill:none;" cx="900" cy="300" r="45" />

  <circle style="stroke-width:4;stroke:#000;fill:none;" cx="100" cy="500" r="45" />
  <circle style="stroke-width:4;stroke:#000;fill:none;" cx="300" cy="500" r="45" />
  <circle style="stroke-width:4;stroke:#000;fill:none;" cx="500" cy="500" r="45" />
  <circle style="stroke-width:4;stroke:#000;fill:none;" cx="700" cy="500" r="45" />
  <circle style="stroke-width:4;stroke:#000;fill:none;" cx="900" cy="500" r="45" />
  <circle style="stroke-width:4;stroke:#000;fill:none;" cx="1100" cy="500" r="45" />
  <circle style="stroke-width:4;stroke:#000;fill:none;" cx="1300" cy="500" r="45" />

  <circle style="stroke-width:4;stroke:#000;fill:none;" cx="100" cy="700" r="45" />
  <circle style="stroke-width:4;stroke:#000;fill:none;" cx="300" cy="700" r="45" />
  <circle style="stroke-width:4;stroke:#000;fill:none;" cx="500" cy="700" r="45" />
  <circle style="stroke-width:4;stroke:#000;fill:none;" cx="700" cy="700" r="45" />
  <circle style="stroke-width:4;stroke:#000;fill:none;" cx="900" cy="700" r="45" />
  <circle style="stroke-width:4;stroke:#000;fill:none;" cx="1100" cy="700" r="45" />
  <circle style="stroke-width:4;stroke:#000;fill:none;" cx="1300" cy="700" r="45" />

  <circle style="stroke-width:4;stroke:#000;fill:none;" cx="100" cy="900" r="45" />
  <circle style="stroke-width:4;stroke:#000;fill:none;" cx="300" cy="900" r="45" />
  <circle style="stroke-width:4;stroke:#000;fill:none;" cx="500" cy="900" r="45" />
  <circle style="stroke-width:4;stroke:#000;fill:none;" cx="700" cy="900" r="45" />
  <circle style="stroke-width:4;stroke:#000;fill:none;" cx="900" cy="900" r="45" />
  <circle style="stroke-width:4;stroke:#000;fill:none;" cx="1100" cy="900" r="45" />
  <circle style="stroke-width:4;stroke:#000;fill:none;" cx="1300" cy="900" r="45" />

  <circle style="stroke-width:4;stroke:#000;fill:none;" cx="500" cy="1100" r="45" />
  <circle style="stroke-width:4;stroke:#000;fill:none;" cx="700" cy="1100" r="45" />
  <circle style="stroke-width:4;stroke:#000;fill:none;" cx="900" cy="1100" r="45" />
  <circle style="stroke-width:4;stroke:#000;fill:none;" cx="500" cy="1300" r="45" />
  <circle style="stroke-width:4;stroke:#000;fill:none;" cx="700" cy="1300" r="45" />
  <circle style="stroke-width:4;stroke:#000;fill:none;" cx="900" cy="1300" r="45" />

</svg>
